<?xml version="1.0" encoding="utf-8"?>
<!-- Generator: Adobe Illustrator 24.2.1, SVG Export Plug-In . SVG Version: 6.00 Build 0)  -->
<svg version="1.1" id="Capa_1" xmlns="http://www.w3.org/2000/svg" xmlns:xlink="http://www.w3.org/1999/xlink" x="0px" y="0px"
	 viewBox="0 0 480 480" style="enable-background:new 0 0 480 480;" xml:space="preserve">
<style type="text/css">
	.st0{fill:url(#SVGID_1_);stroke:url(#SVGID_2_);stroke-miterlimit:10;}
	.st1{fill:url(#SVGID_3_);}
	.st2{fill:url(#SVGID_4_);}
	.st3{fill:url(#SVGID_5_);}
	.st4{fill:url(#SVGID_6_);}
	.st5{fill:url(#SVGID_7_);}
	.st6{fill:url(#SVGID_8_);}
	.st7{fill:url(#SVGID_9_);}
	.st8{fill:url(#SVGID_10_);}
	.st9{fill:none;stroke:url(#SVGID_11_);stroke-width:0.25;stroke-linecap:round;stroke-linejoin:round;stroke-miterlimit:10;}
	.st10{fill:none;stroke:url(#SVGID_12_);stroke-width:0.25;stroke-linecap:round;stroke-linejoin:round;stroke-miterlimit:10;}
</style>
<g>
	<g>
		<linearGradient id="SVGID_1_" gradientUnits="userSpaceOnUse" x1="64" y1="240" x2="416" y2="240">
			<stop  offset="0" style="stop-color:#AC0000"/>
			<stop  offset="1" style="stop-color:#567FFC"/>
		</linearGradient>
		<linearGradient id="SVGID_2_" gradientUnits="userSpaceOnUse" x1="63.5" y1="240" x2="416.5" y2="240">
			<stop  offset="0" style="stop-color:#AC0000"/>
			<stop  offset="1" style="stop-color:#567FFC"/>
		</linearGradient>
		<path class="st0" d="M415.9,88c0-2.1-0.8-4.1-2.3-5.7l-80-80c-1.5-1.5-3.5-2.3-5.7-2.3V0H88C74.7,0,64,10.7,64,24v432
			c0,13.3,10.7,24,24,24h304c13.3,0,24-10.7,24-24L415.9,88L415.9,88z M336,27.3L388.7,80H344c-4.4,0-8-3.6-8-8V27.3z M400,456
			c0,4.4-3.6,8-8,8H88c-4.4,0-8-3.6-8-8V24c0-4.4,3.6-8,8-8h232v56c0,13.3,10.7,24,24,24h56V456z"/>
	</g>
</g>
<g>
	<g>
		<linearGradient id="SVGID_3_" gradientUnits="userSpaceOnUse" x1="120" y1="240" x2="168" y2="240">
			<stop  offset="0" style="stop-color:#AC0000"/>
			<stop  offset="1" style="stop-color:#567FFC"/>
		</linearGradient>
		<path class="st1" d="M144,216c-13.3,0-24,10.7-24,24s10.7,24,24,24s24-10.7,24-24S157.3,216,144,216z M144,248c-4.4,0-8-3.6-8-8
			s3.6-8,8-8s8,3.6,8,8S148.4,248,144,248z"/>
	</g>
</g>
<g>
	<g>
		<linearGradient id="SVGID_4_" gradientUnits="userSpaceOnUse" x1="200" y1="240" x2="360" y2="240">
			<stop  offset="0" style="stop-color:#AC0000"/>
			<stop  offset="1" style="stop-color:#567FFC"/>
		</linearGradient>
		<rect x="200" y="232" class="st2" width="160" height="16"/>
	</g>
</g>
<g>
	<g>
		<linearGradient id="SVGID_5_" gradientUnits="userSpaceOnUse" x1="120" y1="160" x2="168" y2="160">
			<stop  offset="0" style="stop-color:#AC0000"/>
			<stop  offset="1" style="stop-color:#567FFC"/>
		</linearGradient>
		<path class="st3" d="M144,136c-13.3,0-24,10.7-24,24s10.7,24,24,24s24-10.7,24-24S157.3,136,144,136z M144,168c-4.4,0-8-3.6-8-8
			s3.6-8,8-8s8,3.6,8,8S148.4,168,144,168z"/>
	</g>
</g>
<g>
	<g>
		<linearGradient id="SVGID_6_" gradientUnits="userSpaceOnUse" x1="200" y1="160" x2="360" y2="160">
			<stop  offset="0" style="stop-color:#AC0000"/>
			<stop  offset="1" style="stop-color:#567FFC"/>
		</linearGradient>
		<rect x="200" y="152" class="st4" width="160" height="16"/>
	</g>
</g>
<g>
	<g>
		<linearGradient id="SVGID_7_" gradientUnits="userSpaceOnUse" x1="120" y1="320" x2="168" y2="320">
			<stop  offset="0" style="stop-color:#AC0000"/>
			<stop  offset="1" style="stop-color:#567FFC"/>
		</linearGradient>
		<path class="st5" d="M144,296c-13.3,0-24,10.7-24,24s10.7,24,24,24s24-10.7,24-24S157.3,296,144,296z M144,328c-4.4,0-8-3.6-8-8
			s3.6-8,8-8s8,3.6,8,8S148.4,328,144,328z"/>
	</g>
</g>
<g>
	<g>
		<linearGradient id="SVGID_8_" gradientUnits="userSpaceOnUse" x1="200" y1="320" x2="360" y2="320">
			<stop  offset="0" style="stop-color:#AC0000"/>
			<stop  offset="1" style="stop-color:#567FFC"/>
		</linearGradient>
		<rect x="200" y="312" class="st6" width="160" height="16"/>
	</g>
</g>
<g>
	<g>
		<linearGradient id="SVGID_9_" gradientUnits="userSpaceOnUse" x1="120" y1="400" x2="168" y2="400">
			<stop  offset="0" style="stop-color:#AC0000"/>
			<stop  offset="1" style="stop-color:#567FFC"/>
		</linearGradient>
		<path class="st7" d="M144,376c-13.3,0-24,10.7-24,24s10.7,24,24,24s24-10.7,24-24S157.3,376,144,376z M144,408c-4.4,0-8-3.6-8-8
			s3.6-8,8-8s8,3.6,8,8S148.4,408,144,408z"/>
	</g>
</g>
<g>
	<g>
		<linearGradient id="SVGID_10_" gradientUnits="userSpaceOnUse" x1="200" y1="400" x2="360" y2="400">
			<stop  offset="0" style="stop-color:#AC0000"/>
			<stop  offset="1" style="stop-color:#567FFC"/>
		</linearGradient>
		<rect x="200" y="392" class="st8" width="160" height="16"/>
	</g>
</g>
<g>
	<linearGradient id="SVGID_11_" gradientUnits="userSpaceOnUse" x1="-29.4434" y1="207.5771" x2="-11.5437" y2="207.5771">
		<stop  offset="0" style="stop-color:#AC0000"/>
		<stop  offset="1" style="stop-color:#567FFC"/>
	</linearGradient>
	<path class="st9" d="M-20.5,213.4l-4.8,2.5c-0.4,0.2-1-0.1-0.9-0.6l0.9-5.3l-3.9-3.8c-0.4-0.4-0.2-1,0.3-1l5.4-0.8l2.4-4.9
		c0.2-0.5,0.9-0.5,1.1,0l2.4,4.9l5.4,0.8c0.5,0.1,0.7,0.7,0.3,1l-3.9,3.8l0.9,5.3c0.1,0.5-0.4,0.9-0.9,0.6L-20.5,213.4z"/>
	<linearGradient id="SVGID_12_" gradientUnits="userSpaceOnUse" x1="-28.6877" y1="207.5907" x2="-12.2993" y2="207.5907">
		<stop  offset="0" style="stop-color:#AC0000"/>
		<stop  offset="1" style="stop-color:#567FFC"/>
	</linearGradient>
	<polygon class="st10" points="-20.5,199.9 -18,205 -12.4,205.8 -16.5,209.7 -15.5,215.3 -20.5,212.6 -25.5,215.3 -24.5,209.7 
		-28.6,205.8 -23,205 	"/>
</g>
</svg>
